<svg width="88" height="28" viewBox="0 0 88 28" fill="none" xmlns="http://www.w3.org/2000/svg">
<g style="mix-blend-mode:darken">
<path d="M10.5527 19H11.9987V11.716H14.7947V10.36H7.75672V11.716H10.5527V19ZM16.7223 19.18C17.2383 19.18 17.6763 19.096 18.0363 18.928C18.4003 18.756 18.7203 18.49 18.9963 18.13V19H20.2623V15.022C20.2623 14.742 20.2503 14.484 20.2263 14.248C20.2023 14.008 20.1323 13.774 20.0163 13.546C19.8043 13.118 19.4783 12.81 19.0383 12.622C18.6023 12.434 18.0963 12.34 17.5203 12.34C16.7603 12.34 16.1543 12.506 15.7023 12.838C15.2503 13.17 14.9443 13.61 14.7843 14.158L16.1043 14.572C16.2123 14.24 16.4023 14.006 16.6743 13.87C16.9463 13.734 17.2283 13.666 17.5203 13.666C17.9603 13.666 18.2843 13.756 18.4923 13.936C18.7003 14.112 18.8183 14.386 18.8463 14.758C18.2783 14.842 17.7503 14.924 17.2623 15.004C16.7783 15.08 16.3663 15.174 16.0263 15.286C15.5143 15.462 15.1403 15.712 14.9043 16.036C14.6683 16.356 14.5503 16.752 14.5503 17.224C14.5503 17.58 14.6323 17.906 14.7963 18.202C14.9643 18.498 15.2103 18.736 15.5343 18.916C15.8583 19.092 16.2543 19.18 16.7223 19.18ZM17.0103 18.028C16.6703 18.028 16.4103 17.95 16.2303 17.794C16.0543 17.638 15.9663 17.442 15.9663 17.206C15.9663 16.994 16.0343 16.822 16.1703 16.69C16.3103 16.558 16.5043 16.446 16.7523 16.354C16.9803 16.278 17.2543 16.212 17.5743 16.156C17.8943 16.096 18.3123 16.026 18.8283 15.946C18.8243 16.098 18.8143 16.268 18.7983 16.456C18.7823 16.64 18.7443 16.806 18.6843 16.954C18.6363 17.102 18.5423 17.26 18.4023 17.428C18.2663 17.596 18.0823 17.738 17.8503 17.854C17.6183 17.97 17.3383 18.028 17.0103 18.028ZM21.8124 19H23.2764V15.67C23.2764 15.146 23.3504 14.742 23.4984 14.458C23.6504 14.17 23.8424 13.972 24.0744 13.864C24.3104 13.752 24.5504 13.696 24.7944 13.696C25.1384 13.696 25.4124 13.772 25.6164 13.924C25.8204 14.072 25.9704 14.262 26.0664 14.494C26.1664 14.722 26.2304 14.96 26.2584 15.208C26.2904 15.456 26.3064 15.68 26.3064 15.88V19H27.7704V15.382C27.7704 15.23 27.7564 15.028 27.7284 14.776C27.7044 14.524 27.6484 14.258 27.5604 13.978C27.4724 13.698 27.3364 13.434 27.1524 13.186C26.9684 12.934 26.7184 12.73 26.4024 12.574C26.0904 12.414 25.6964 12.334 25.2204 12.334C24.7524 12.334 24.3404 12.416 23.9844 12.58C23.6324 12.74 23.3384 12.96 23.1024 13.24V10.36H21.8124V19ZM31.7661 19.186C32.2341 19.186 32.6441 19.106 32.9961 18.946C33.3521 18.782 33.6481 18.56 33.8841 18.28V19H35.1621V12.52H33.7101V15.85C33.7101 16.374 33.6341 16.78 33.4821 17.068C33.3341 17.352 33.1441 17.55 32.9121 17.662C32.6801 17.77 32.4401 17.824 32.1921 17.824C31.8481 17.824 31.5741 17.75 31.3701 17.602C31.1661 17.45 31.0141 17.26 30.9141 17.032C30.8181 16.8 30.7541 16.56 30.7221 16.312C30.6941 16.064 30.6801 15.84 30.6801 15.64V12.52H29.2161V16.138C29.2161 16.29 29.2281 16.492 29.2521 16.744C29.2801 16.996 29.3381 17.262 29.4261 17.542C29.5141 17.822 29.6501 18.088 29.8341 18.34C30.0181 18.588 30.2661 18.792 30.5781 18.952C30.8941 19.108 31.2901 19.186 31.7661 19.186Z" fill="black"/>
<path d="M42.9042 19.18C43.8962 19.18 44.7242 18.932 45.3882 18.436C46.0562 17.936 46.5242 17.264 46.7922 16.42L45.3342 16.018C45.1662 16.578 44.8802 17.018 44.4762 17.338C44.0722 17.658 43.5482 17.818 42.9042 17.818C42.0362 17.818 41.3822 17.532 40.9422 16.96C40.5062 16.384 40.2882 15.624 40.2882 14.68C40.2922 13.736 40.5122 12.978 40.9482 12.406C41.3842 11.83 42.0362 11.542 42.9042 11.542C43.5482 11.542 44.0722 11.702 44.4762 12.022C44.8802 12.342 45.1662 12.782 45.3342 13.342L46.7922 12.94C46.5242 12.092 46.0562 11.42 45.3882 10.924C44.7242 10.428 43.8962 10.18 42.9042 10.18C42.0442 10.18 41.3042 10.37 40.6842 10.75C40.0682 11.126 39.5942 11.652 39.2622 12.328C38.9342 13 38.7702 13.784 38.7702 14.68C38.7702 15.572 38.9342 16.356 39.2622 17.032C39.5942 17.708 40.0682 18.236 40.6842 18.616C41.3042 18.992 42.0442 19.18 42.9042 19.18ZM50.9715 19.18C51.6195 19.18 52.1855 19.036 52.6695 18.748C53.1535 18.456 53.5295 18.054 53.7975 17.542C54.0695 17.026 54.2055 16.432 54.2055 15.76C54.2055 15.092 54.0715 14.502 53.8035 13.99C53.5355 13.474 53.1595 13.07 52.6755 12.778C52.1915 12.486 51.6235 12.34 50.9715 12.34C50.3355 12.34 49.7755 12.484 49.2915 12.772C48.8075 13.06 48.4295 13.46 48.1575 13.972C47.8855 14.484 47.7495 15.08 47.7495 15.76C47.7495 16.428 47.8815 17.02 48.1455 17.536C48.4135 18.048 48.7895 18.45 49.2735 18.742C49.7575 19.034 50.3235 19.18 50.9715 19.18ZM50.9715 17.824C50.4155 17.824 49.9935 17.638 49.7055 17.266C49.4215 16.89 49.2795 16.388 49.2795 15.76C49.2795 15.148 49.4155 14.652 49.6875 14.272C49.9635 13.888 50.3915 13.696 50.9715 13.696C51.5395 13.696 51.9655 13.884 52.2495 14.26C52.5335 14.632 52.6755 15.132 52.6755 15.76C52.6755 16.368 52.5335 16.864 52.2495 17.248C51.9695 17.632 51.5435 17.824 50.9715 17.824ZM58.1255 19.18C58.5095 19.18 58.8555 19.122 59.1635 19.006C59.4715 18.89 59.7415 18.728 59.9735 18.52V19H61.2515V10.36H59.7935V12.838C59.5775 12.678 59.3355 12.556 59.0675 12.472C58.7995 12.384 58.5035 12.34 58.1795 12.34C57.5675 12.34 57.0355 12.488 56.5835 12.784C56.1355 13.08 55.7875 13.486 55.5395 14.002C55.2915 14.518 55.1675 15.104 55.1675 15.76C55.1675 16.408 55.2895 16.99 55.5335 17.506C55.7775 18.022 56.1215 18.43 56.5655 18.73C57.0095 19.03 57.5295 19.18 58.1255 19.18ZM58.3475 17.884C57.9715 17.884 57.6615 17.79 57.4175 17.602C57.1735 17.41 56.9915 17.154 56.8715 16.834C56.7555 16.514 56.6975 16.156 56.6975 15.76C56.6975 15.368 56.7575 15.012 56.8775 14.692C57.0015 14.368 57.1875 14.112 57.4355 13.924C57.6875 13.732 58.0075 13.636 58.3955 13.636C58.9475 13.636 59.3475 13.832 59.5955 14.224C59.8475 14.616 59.9735 15.128 59.9735 15.76C59.9735 16.388 59.8475 16.9 59.5955 17.296C59.3475 17.688 58.9315 17.884 58.3475 17.884ZM63.0538 11.536H64.4998V10.21H63.0538V11.536ZM63.0538 19H64.4998V12.52H63.0538V19ZM66.285 19H67.749V15.67C67.749 15.146 67.823 14.742 67.971 14.458C68.123 14.17 68.315 13.972 68.547 13.864C68.783 13.752 69.023 13.696 69.267 13.696C69.611 13.696 69.885 13.772 70.089 13.924C70.293 14.072 70.443 14.262 70.539 14.494C70.639 14.722 70.703 14.96 70.731 15.208C70.763 15.456 70.779 15.68 70.779 15.88V19H72.243V15.382C72.243 15.23 72.229 15.028 72.201 14.776C72.177 14.524 72.121 14.258 72.033 13.978C71.945 13.698 71.809 13.434 71.625 13.186C71.441 12.934 71.191 12.73 70.875 12.574C70.563 12.414 70.169 12.334 69.693 12.334C69.225 12.334 68.813 12.416 68.457 12.58C68.105 12.74 67.811 12.96 67.575 13.24V12.52H66.285V19ZM76.4068 19.18C76.7428 19.18 77.0488 19.134 77.3248 19.042C77.6048 18.954 77.8548 18.83 78.0748 18.67V19.288C78.0828 19.748 77.9408 20.096 77.6488 20.332C77.3608 20.568 76.9908 20.686 76.5388 20.686C76.2828 20.686 76.0408 20.628 75.8128 20.512C75.5848 20.396 75.4108 20.222 75.2908 19.99L73.9588 20.65C74.2108 21.09 74.5668 21.434 75.0268 21.682C75.4908 21.934 75.9928 22.06 76.5328 22.06C77.2648 22.06 77.8928 21.91 78.4168 21.61C78.9448 21.314 79.2828 20.852 79.4308 20.224C79.4628 20.08 79.4848 19.934 79.4968 19.786C79.5128 19.638 79.5208 19.48 79.5208 19.312V12.52H78.2548V12.988C78.0268 12.78 77.7628 12.62 77.4628 12.508C77.1628 12.396 76.8288 12.34 76.4608 12.34C75.8488 12.34 75.3168 12.488 74.8648 12.784C74.4168 13.08 74.0688 13.486 73.8208 14.002C73.5728 14.518 73.4488 15.104 73.4488 15.76C73.4488 16.408 73.5708 16.99 73.8148 17.506C74.0588 18.022 74.4028 18.43 74.8468 18.73C75.2908 19.03 75.8108 19.18 76.4068 19.18ZM76.6288 17.884C76.2528 17.884 75.9428 17.79 75.6988 17.602C75.4548 17.41 75.2728 17.154 75.1528 16.834C75.0368 16.514 74.9788 16.156 74.9788 15.76C74.9788 15.368 75.0388 15.012 75.1588 14.692C75.2828 14.368 75.4688 14.112 75.7168 13.924C75.9688 13.732 76.2888 13.636 76.6768 13.636C77.2288 13.636 77.6288 13.832 77.8768 14.224C78.1288 14.616 78.2548 15.128 78.2548 15.76C78.2548 16.388 78.1288 16.9 77.8768 17.296C77.6288 17.688 77.2128 17.884 76.6288 17.884Z" fill="#8C30F5"/>
</g>
</svg>
