<svg width="73" height="13" viewBox="0 0 73 13" fill="none" xmlns="http://www.w3.org/2000/svg">
<g style="mix-blend-mode:darken">
<path d="M3.55272 9H4.99872V1.716H7.79472V0.36H0.756719V1.716H3.55272V9ZM9.72231 9.18C10.2383 9.18 10.6763 9.096 11.0363 8.928C11.4003 8.756 11.7203 8.49 11.9963 8.13V9H13.2623V5.022C13.2623 4.742 13.2503 4.484 13.2263 4.248C13.2023 4.008 13.1323 3.774 13.0163 3.546C12.8043 3.118 12.4783 2.81 12.0383 2.622C11.6023 2.434 11.0963 2.34 10.5203 2.34C9.76031 2.34 9.15431 2.506 8.70231 2.838C8.25031 3.17 7.94431 3.61 7.78431 4.158L9.10431 4.572C9.21231 4.24 9.40231 4.006 9.67431 3.87C9.94631 3.734 10.2283 3.666 10.5203 3.666C10.9603 3.666 11.2843 3.756 11.4923 3.936C11.7003 4.112 11.8183 4.386 11.8463 4.758C11.2783 4.842 10.7503 4.924 10.2623 5.004C9.77831 5.08 9.36631 5.174 9.02631 5.286C8.51431 5.462 8.14031 5.712 7.90431 6.036C7.66831 6.356 7.55031 6.752 7.55031 7.224C7.55031 7.58 7.63231 7.906 7.79631 8.202C7.96431 8.498 8.21031 8.736 8.53431 8.916C8.85831 9.092 9.25431 9.18 9.72231 9.18ZM10.0103 8.028C9.67031 8.028 9.41031 7.95 9.23031 7.794C9.05431 7.638 8.96631 7.442 8.96631 7.206C8.96631 6.994 9.03431 6.822 9.17031 6.69C9.31031 6.558 9.50431 6.446 9.75231 6.354C9.98031 6.278 10.2543 6.212 10.5743 6.156C10.8943 6.096 11.3123 6.026 11.8283 5.946C11.8243 6.098 11.8143 6.268 11.7983 6.456C11.7823 6.64 11.7443 6.806 11.6843 6.954C11.6363 7.102 11.5423 7.26 11.4023 7.428C11.2663 7.596 11.0823 7.738 10.8503 7.854C10.6183 7.97 10.3383 8.028 10.0103 8.028ZM14.8124 9H16.2764V5.67C16.2764 5.146 16.3504 4.742 16.4984 4.458C16.6504 4.17 16.8424 3.972 17.0744 3.864C17.3104 3.752 17.5504 3.696 17.7944 3.696C18.1384 3.696 18.4124 3.772 18.6164 3.924C18.8204 4.072 18.9704 4.262 19.0664 4.494C19.1664 4.722 19.2304 4.96 19.2584 5.208C19.2904 5.456 19.3064 5.68 19.3064 5.88V9H20.7704V5.382C20.7704 5.23 20.7564 5.028 20.7284 4.776C20.7044 4.524 20.6484 4.258 20.5604 3.978C20.4724 3.698 20.3364 3.434 20.1524 3.186C19.9684 2.934 19.7184 2.73 19.4024 2.574C19.0904 2.414 18.6964 2.334 18.2204 2.334C17.7524 2.334 17.3404 2.416 16.9844 2.58C16.6324 2.74 16.3384 2.96 16.1024 3.24V0.36H14.8124V9ZM24.7661 9.186C25.2341 9.186 25.6441 9.106 25.9961 8.946C26.3521 8.782 26.6481 8.56 26.8841 8.28V9H28.1621V2.52H26.7101V5.85C26.7101 6.374 26.6341 6.78 26.4821 7.068C26.3341 7.352 26.1441 7.55 25.9121 7.662C25.6801 7.77 25.4401 7.824 25.1921 7.824C24.8481 7.824 24.5741 7.75 24.3701 7.602C24.1661 7.45 24.0141 7.26 23.9141 7.032C23.8181 6.8 23.7541 6.56 23.7221 6.312C23.6941 6.064 23.6801 5.84 23.6801 5.64V2.52H22.2161V6.138C22.2161 6.29 22.2281 6.492 22.2521 6.744C22.2801 6.996 22.3381 7.262 22.4261 7.542C22.5141 7.822 22.6501 8.088 22.8341 8.34C23.0181 8.588 23.2661 8.792 23.5781 8.952C23.8941 9.108 24.2901 9.186 24.7661 9.186Z" fill="white"/>
<path d="M35.9042 9.18C36.8962 9.18 37.7242 8.932 38.3882 8.436C39.0562 7.936 39.5242 7.264 39.7922 6.42L38.3342 6.018C38.1662 6.578 37.8802 7.018 37.4762 7.338C37.0722 7.658 36.5482 7.818 35.9042 7.818C35.0362 7.818 34.3822 7.532 33.9422 6.96C33.5062 6.384 33.2882 5.624 33.2882 4.68C33.2922 3.736 33.5122 2.978 33.9482 2.406C34.3842 1.83 35.0362 1.542 35.9042 1.542C36.5482 1.542 37.0722 1.702 37.4762 2.022C37.8802 2.342 38.1662 2.782 38.3342 3.342L39.7922 2.94C39.5242 2.092 39.0562 1.42 38.3882 0.924C37.7242 0.428 36.8962 0.18 35.9042 0.18C35.0442 0.18 34.3042 0.37 33.6842 0.749999C33.0682 1.126 32.5942 1.652 32.2622 2.328C31.9342 3 31.7702 3.784 31.7702 4.68C31.7702 5.572 31.9342 6.356 32.2622 7.032C32.5942 7.708 33.0682 8.236 33.6842 8.616C34.3042 8.992 35.0442 9.18 35.9042 9.18ZM43.9715 9.18C44.6195 9.18 45.1855 9.036 45.6695 8.748C46.1535 8.456 46.5295 8.054 46.7975 7.542C47.0695 7.026 47.2055 6.432 47.2055 5.76C47.2055 5.092 47.0715 4.502 46.8035 3.99C46.5355 3.474 46.1595 3.07 45.6755 2.778C45.1915 2.486 44.6235 2.34 43.9715 2.34C43.3355 2.34 42.7755 2.484 42.2915 2.772C41.8075 3.06 41.4295 3.46 41.1575 3.972C40.8855 4.484 40.7495 5.08 40.7495 5.76C40.7495 6.428 40.8815 7.02 41.1455 7.536C41.4135 8.048 41.7895 8.45 42.2735 8.742C42.7575 9.034 43.3235 9.18 43.9715 9.18ZM43.9715 7.824C43.4155 7.824 42.9935 7.638 42.7055 7.266C42.4215 6.89 42.2795 6.388 42.2795 5.76C42.2795 5.148 42.4155 4.652 42.6875 4.272C42.9635 3.888 43.3915 3.696 43.9715 3.696C44.5395 3.696 44.9655 3.884 45.2495 4.26C45.5335 4.632 45.6755 5.132 45.6755 5.76C45.6755 6.368 45.5335 6.864 45.2495 7.248C44.9695 7.632 44.5435 7.824 43.9715 7.824ZM51.1255 9.18C51.5095 9.18 51.8555 9.122 52.1635 9.006C52.4715 8.89 52.7415 8.728 52.9735 8.52V9H54.2515V0.36H52.7935V2.838C52.5775 2.678 52.3355 2.556 52.0675 2.472C51.7995 2.384 51.5035 2.34 51.1795 2.34C50.5675 2.34 50.0355 2.488 49.5835 2.784C49.1355 3.08 48.7875 3.486 48.5395 4.002C48.2915 4.518 48.1675 5.104 48.1675 5.76C48.1675 6.408 48.2895 6.99 48.5335 7.506C48.7775 8.022 49.1215 8.43 49.5655 8.73C50.0095 9.03 50.5295 9.18 51.1255 9.18ZM51.3475 7.884C50.9715 7.884 50.6615 7.79 50.4175 7.602C50.1735 7.41 49.9915 7.154 49.8715 6.834C49.7555 6.514 49.6975 6.156 49.6975 5.76C49.6975 5.368 49.7575 5.012 49.8775 4.692C50.0015 4.368 50.1875 4.112 50.4355 3.924C50.6875 3.732 51.0075 3.636 51.3955 3.636C51.9475 3.636 52.3475 3.832 52.5955 4.224C52.8475 4.616 52.9735 5.128 52.9735 5.76C52.9735 6.388 52.8475 6.9 52.5955 7.296C52.3475 7.688 51.9315 7.884 51.3475 7.884ZM56.0538 1.536H57.4998V0.21H56.0538V1.536ZM56.0538 9H57.4998V2.52H56.0538V9ZM59.285 9H60.749V5.67C60.749 5.146 60.823 4.742 60.971 4.458C61.123 4.17 61.315 3.972 61.547 3.864C61.783 3.752 62.023 3.696 62.267 3.696C62.611 3.696 62.885 3.772 63.089 3.924C63.293 4.072 63.443 4.262 63.539 4.494C63.639 4.722 63.703 4.96 63.731 5.208C63.763 5.456 63.779 5.68 63.779 5.88V9H65.243V5.382C65.243 5.23 65.229 5.028 65.201 4.776C65.177 4.524 65.121 4.258 65.033 3.978C64.945 3.698 64.809 3.434 64.625 3.186C64.441 2.934 64.191 2.73 63.875 2.574C63.563 2.414 63.169 2.334 62.693 2.334C62.225 2.334 61.813 2.416 61.457 2.58C61.105 2.74 60.811 2.96 60.575 3.24V2.52H59.285V9ZM69.4068 9.18C69.7428 9.18 70.0488 9.134 70.3248 9.042C70.6048 8.954 70.8548 8.83 71.0748 8.67V9.288C71.0828 9.748 70.9408 10.096 70.6488 10.332C70.3608 10.568 69.9908 10.686 69.5388 10.686C69.2828 10.686 69.0408 10.628 68.8128 10.512C68.5848 10.396 68.4108 10.222 68.2908 9.99L66.9588 10.65C67.2108 11.09 67.5668 11.434 68.0268 11.682C68.4908 11.934 68.9928 12.06 69.5328 12.06C70.2648 12.06 70.8928 11.91 71.4168 11.61C71.9448 11.314 72.2828 10.852 72.4308 10.224C72.4628 10.08 72.4848 9.934 72.4968 9.786C72.5128 9.638 72.5208 9.48 72.5208 9.312V2.52H71.2548V2.988C71.0268 2.78 70.7628 2.62 70.4628 2.508C70.1628 2.396 69.8288 2.34 69.4608 2.34C68.8488 2.34 68.3168 2.488 67.8648 2.784C67.4168 3.08 67.0688 3.486 66.8208 4.002C66.5728 4.518 66.4488 5.104 66.4488 5.76C66.4488 6.408 66.5708 6.99 66.8148 7.506C67.0588 8.022 67.4028 8.43 67.8468 8.73C68.2908 9.03 68.8108 9.18 69.4068 9.18ZM69.6288 7.884C69.2528 7.884 68.9428 7.79 68.6988 7.602C68.4548 7.41 68.2728 7.154 68.1528 6.834C68.0368 6.514 67.9788 6.156 67.9788 5.76C67.9788 5.368 68.0388 5.012 68.1588 4.692C68.2828 4.368 68.4688 4.112 68.7168 3.924C68.9688 3.732 69.2888 3.636 69.6768 3.636C70.2288 3.636 70.6288 3.832 70.8768 4.224C71.1288 4.616 71.2548 5.128 71.2548 5.76C71.2548 6.388 71.1288 6.9 70.8768 7.296C70.6288 7.688 70.2128 7.884 69.6288 7.884Z" fill="#8C30F5"/>
</g>
</svg>
